# xmcd CD database file
#
# Track frame offsets:
#	150
#	23742
#	40584
#	55884
#	86682
#	114123
#	132821
#	150371
#	162737
#	184691
#	201449
#	223507
#	256522
#	256823
#	257125
#	257426
#	257727
#	258029
#	258330
#	263131
#	263432
#	263733
#	264034
#	264336
#	264637
#	264938
#	265240
#	265541
#	265842
#	266144
#	266445
#	266746
#	267047
#	267349
#	267650
#	267951
#	268253
#	268554
#
# Disc length: 3927 seconds
#
# Revision: 0
# Processed by: cddbd v1.5.1PL0 Copyright (c) Steve Scherf et al.
# Submitted via: CDex 1.51
#
DISCID=270f5526
DTITLE=Dana Lyons - Cows With Guns (The Cow Pie Nation Cowpilation)
DYEAR=1998
DGENRE=Country
TTITLE0=Cows With Guns
TTITLE1=RV
TTITLE2=TV God
TTITLE3=Turn Of The Wrench
TTITLE4=My Country
TTITLE5=June Is A Comin'
TTITLE6=Swimmin' In The Big
TTITLE7=Lubricate The Red, White and Blue
TTITLE8=The Company's Been Good To Me
TTITLE9=Song For River Phoenix (If I Had Known)
TTITLE10=Kevin's Song
TTITLE11=Drop Of Water
TTITLE12=13
TTITLE13=14
TTITLE14=15
TTITLE15=16
TTITLE16=17
TTITLE17=18
TTITLE18=19
TTITLE19=20
TTITLE20=21
TTITLE21=22
TTITLE22=23
TTITLE23=24
TTITLE24=25
TTITLE25=26
TTITLE26=27
TTITLE27=28
TTITLE28=29
TTITLE29=30
TTITLE30=31
TTITLE31=32
TTITLE32=33
TTITLE33=34
TTITLE34=35
TTITLE35=36
TTITLE36=37
TTITLE37=Bonus Track
EXTD=YEAR: 1998
EXTT0=
EXTT1=
EXTT2=
EXTT3=
EXTT4=
EXTT5=
EXTT6=
EXTT7=
EXTT8=
EXTT9=
EXTT10=
EXTT11=
EXTT12=
EXTT13=
EXTT14=
EXTT15=
EXTT16=
EXTT17=
EXTT18=
EXTT19=
EXTT20=
EXTT21=
EXTT22=
EXTT23=
EXTT24=
EXTT25=
EXTT26=
EXTT27=
EXTT28=
EXTT29=
EXTT30=
EXTT31=
EXTT32=
EXTT33=
EXTT34=
EXTT35=
EXTT36=
EXTT37=
PLAYORDER=
